<svg width="360" height="360" viewBox="0 0 360 360" fill="none" xmlns="http://www.w3.org/2000/svg">
<circle cx="180" cy="180" r="177.5" fill="url(#paint0_linear_1_40)"/>
<circle cx="180" cy="180" r="177.5" fill="url(#paint1_linear_1_40)" fill-opacity="0.2"/>
<circle cx="180" cy="180" r="177.5" stroke="url(#paint2_linear_1_40)" stroke-width="5"/>
<circle cx="180" cy="180" r="28.5" fill="#3F3F3F" stroke="white" stroke-width="5"/>
<path d="M39.9715 164.349C39.9058 164.745 39.7482 165.038 39.4987 165.229C39.2492 165.42 38.9832 165.492 38.7006 165.445C38.418 165.398 38.1895 165.244 38.0151 164.983C37.8407 164.721 37.7864 164.393 37.8521 163.997L39.858 151.917C39.9237 151.521 40.0813 151.228 40.3308 151.037C40.5803 150.846 40.8463 150.774 41.1289 150.821C41.4115 150.868 41.64 151.022 41.8144 151.283C41.9888 151.545 42.0431 151.873 41.9775 152.269L39.9715 164.349ZM37.2586 163.899C37.1929 164.294 37.0353 164.588 36.7859 164.779C36.5364 164.969 36.2704 165.041 35.9878 164.995C35.7052 164.948 35.4767 164.794 35.3023 164.532C35.1279 164.271 35.0735 163.943 35.1392 163.547L35.7938 159.605C35.8595 159.209 36.0171 158.916 36.2665 158.725C36.516 158.534 36.7821 158.462 37.0647 158.509C37.3472 158.556 37.5757 158.71 37.7501 158.971C37.9245 159.233 37.9789 159.561 37.9132 159.957L37.2586 163.899ZM39.0605 153.047C38.9948 153.443 38.8372 153.736 38.5877 153.927C38.3382 154.118 38.0722 154.19 37.7896 154.143C37.507 154.096 37.2785 153.942 37.1041 153.681C36.9297 153.42 36.8754 153.091 36.9411 152.695L37.5956 148.753C37.6613 148.358 37.8189 148.065 38.0684 147.874C38.3179 147.683 38.5839 147.611 38.8665 147.658C39.1491 147.705 39.3776 147.859 39.552 148.12C39.7264 148.381 39.7808 148.71 39.7151 149.105L39.0605 153.047ZM34.5458 163.448C34.4801 163.844 34.3225 164.137 34.073 164.328C33.8235 164.519 33.5575 164.591 33.2749 164.544C32.9923 164.497 32.7638 164.343 32.5894 164.082C32.415 163.821 32.3607 163.492 32.4264 163.096L33.0809 159.154C33.1466 158.759 33.3042 158.465 33.5537 158.275C33.8032 158.084 34.0692 158.012 34.3518 158.059C34.6344 158.106 34.8629 158.26 35.0373 158.521C35.2117 158.782 35.266 159.111 35.2004 159.506L34.5458 163.448ZM36.3476 152.597C36.2819 152.993 36.1243 153.286 35.8749 153.477C35.6254 153.668 35.3594 153.74 35.0768 153.693C34.7942 153.646 34.5657 153.492 34.3913 153.23C34.2169 152.969 34.1625 152.641 34.2282 152.245L34.8828 148.303C34.9485 147.907 35.1061 147.614 35.3555 147.423C35.605 147.232 35.8711 147.16 36.1537 147.207C36.4362 147.254 36.6647 147.408 36.8391 147.67C37.0135 147.931 37.0679 148.259 37.0022 148.655L36.3476 152.597ZM31.8329 162.998C31.7672 163.394 31.6096 163.687 31.3602 163.878C31.1107 164.069 30.8446 164.141 30.5621 164.094C30.2795 164.047 30.051 163.893 29.8766 163.631C29.7022 163.37 29.6478 163.042 29.7135 162.646L31.7195 150.565C31.7852 150.17 31.9427 149.876 32.1922 149.686C32.4417 149.495 32.7077 149.423 32.9903 149.47C33.2729 149.517 33.5014 149.671 33.6758 149.932C33.8502 150.193 33.9046 150.522 33.8389 150.917L31.8329 162.998ZM29.1201 162.547C29.0544 162.943 28.8968 163.236 28.6473 163.427C28.3978 163.618 28.1318 163.69 27.8492 163.643C27.5666 163.596 27.3381 163.442 27.1637 163.181C26.9893 162.92 26.935 162.591 27.0006 162.196L27.6552 158.253C27.7209 157.858 27.8785 157.565 28.128 157.374C28.3775 157.183 28.6435 157.111 28.9261 157.158C29.2087 157.205 29.4372 157.359 29.6116 157.62C29.786 157.881 29.8403 158.21 29.7746 158.605L29.1201 162.547ZM30.9219 151.696C30.8562 152.092 30.6986 152.385 30.4492 152.576C30.1997 152.767 29.9336 152.839 29.6511 152.792C29.3685 152.745 29.14 152.591 28.9656 152.329C28.7912 152.068 28.7368 151.74 28.8025 151.344L29.4571 147.402C29.5228 147.006 29.6804 146.713 29.9298 146.522C30.1793 146.331 30.4454 146.259 30.7279 146.306C31.0105 146.353 31.239 146.507 31.4134 146.769C31.5878 147.03 31.6422 147.358 31.5765 147.754L30.9219 151.696ZM26.4072 162.097C26.3415 162.493 26.1839 162.786 25.9344 162.977C25.685 163.168 25.4189 163.24 25.1363 163.193C24.8538 163.146 24.6253 162.992 24.4509 162.73C24.2765 162.469 24.2221 162.141 24.2878 161.745L24.9424 157.803C25.0081 157.407 25.1656 157.114 25.4151 156.923C25.6646 156.732 25.9306 156.66 26.2132 156.707C26.4958 156.754 26.7243 156.908 26.8987 157.17C27.0731 157.431 27.1275 157.759 27.0618 158.155L26.4072 162.097ZM28.2091 151.246C28.1434 151.641 27.9858 151.934 27.7363 152.125C27.4868 152.316 27.2208 152.388 26.9382 152.341C26.6556 152.294 26.4271 152.14 26.2527 151.879C26.0783 151.618 26.024 151.289 26.0896 150.894L26.7442 146.952C26.8099 146.556 26.9675 146.263 27.217 146.072C27.4665 145.881 27.7325 145.809 28.0151 145.856C28.2977 145.903 28.5262 146.057 28.7006 146.318C28.875 146.579 28.9293 146.908 28.8636 147.303L28.2091 151.246ZM23.6944 161.647C23.6287 162.042 23.4711 162.335 23.2216 162.526C22.9721 162.717 22.7061 162.789 22.4235 162.742C22.1409 162.695 21.9124 162.541 21.738 162.28C21.5636 162.019 21.5092 161.69 21.5749 161.295L23.5809 149.214C23.6466 148.818 23.8042 148.525 24.0537 148.334C24.3031 148.143 24.5692 148.071 24.8518 148.118C25.1344 148.165 25.3629 148.319 25.5373 148.581C25.7117 148.842 25.766 149.17 25.7003 149.566L23.6944 161.647Z" fill="black"/>
<path d="M46.2913 135.94C46.153 136.317 45.9436 136.576 45.6629 136.717C45.3822 136.858 45.1074 136.879 44.8385 136.78C44.5696 136.681 44.3738 136.487 44.2512 136.198C44.1286 135.909 44.1364 135.576 44.2747 135.2L47.5491 126.286C47.6874 125.91 47.8969 125.651 48.1776 125.51C48.4582 125.369 48.733 125.348 49.0019 125.446C49.2708 125.545 49.4666 125.739 49.5892 126.028C49.7119 126.318 49.7041 126.65 49.5658 127.027L46.2913 135.94ZM42.7617 137.574C42.6235 137.95 42.414 138.209 42.1333 138.35C41.8526 138.491 41.5778 138.512 41.3089 138.413C41.04 138.314 40.8443 138.12 40.7216 137.831C40.599 137.542 40.6068 137.209 40.7451 136.833L42.123 133.082C42.2613 132.705 42.4708 132.447 42.7515 132.306C43.0321 132.164 43.3069 132.143 43.5758 132.242C43.8447 132.341 44.0405 132.535 44.1631 132.824C44.2858 133.113 44.278 133.446 44.1397 133.823L42.7617 137.574ZM46.5548 127.248C46.4165 127.625 46.207 127.883 45.9263 128.024C45.6456 128.165 45.3708 128.187 45.1019 128.088C44.833 127.989 44.6373 127.795 44.5146 127.506C44.392 127.217 44.3998 126.884 44.5381 126.507L45.916 122.756C46.0543 122.38 46.2638 122.121 46.5445 121.98C46.8252 121.839 47.1 121.818 47.3688 121.917C47.6377 122.016 47.8335 122.21 47.9561 122.499C48.0788 122.788 48.071 123.121 47.9327 123.497L46.5548 127.248ZM40.1804 136.625C40.0421 137.002 39.8326 137.26 39.5519 137.402C39.2712 137.543 38.9965 137.564 38.7276 137.465C38.4587 137.366 38.2629 137.172 38.1403 136.883C38.0176 136.594 38.0254 136.261 38.1637 135.884L39.5417 132.133C39.6799 131.757 39.8894 131.498 40.1701 131.357C40.4508 131.216 40.7256 131.195 40.9945 131.294C41.2634 131.393 41.4591 131.587 41.5818 131.876C41.7044 132.165 41.6966 132.498 41.5583 132.874L40.1804 136.625ZM43.9734 126.3C43.8351 126.676 43.6256 126.935 43.345 127.076C43.0643 127.217 42.7895 127.238 42.5206 127.14C42.2517 127.041 42.0559 126.847 41.9333 126.558C41.8106 126.268 41.8185 125.936 41.9567 125.559L43.3347 121.808C43.473 121.432 43.6824 121.173 43.9631 121.032C44.2438 120.891 44.5186 120.87 44.7875 120.969C45.0564 121.067 45.2522 121.261 45.3748 121.55C45.4975 121.84 45.4896 122.173 45.3513 122.549L43.9734 126.3ZM37.5991 135.677C37.4608 136.054 37.2513 136.312 36.9706 136.453C36.6899 136.594 36.4151 136.615 36.1462 136.517C35.8773 136.418 35.6816 136.224 35.5589 135.935C35.4363 135.646 35.4441 135.313 35.5824 134.936L36.9603 131.185C37.0986 130.809 37.3081 130.55 37.5888 130.409C37.8695 130.268 38.1443 130.247 38.4131 130.346C38.682 130.444 38.8778 130.638 39.0005 130.928C39.1231 131.217 39.1153 131.55 38.977 131.926L37.5991 135.677ZM41.3921 125.352C41.2538 125.728 41.0443 125.987 40.7636 126.128C40.4829 126.269 40.2081 126.29 39.9392 126.191C39.6704 126.093 39.4746 125.899 39.3519 125.609C39.2293 125.32 39.2371 124.987 39.3754 124.611L40.7533 120.86C40.8916 120.483 41.1011 120.225 41.3818 120.084C41.6625 119.943 41.9373 119.922 42.2062 120.02C42.4751 120.119 42.6708 120.313 42.7935 120.602C42.9161 120.891 42.9083 121.224 42.77 121.601L41.3921 125.352ZM35.0177 134.729C34.8794 135.105 34.6699 135.364 34.3893 135.505C34.1086 135.646 33.8338 135.667 33.5649 135.568C33.296 135.47 33.1002 135.276 32.9776 134.986C32.8549 134.697 32.8628 134.364 33.001 133.988L34.379 130.237C34.5173 129.861 34.7268 129.602 35.0074 129.461C35.2881 129.32 35.5629 129.299 35.8318 129.397C36.1007 129.496 36.2965 129.69 36.4191 129.979C36.5418 130.269 36.5339 130.601 36.3957 130.978L35.0177 134.729ZM38.8107 124.403C38.6724 124.78 38.463 125.039 38.1823 125.18C37.9016 125.321 37.6268 125.342 37.3579 125.243C37.089 125.144 36.8932 124.95 36.7706 124.661C36.648 124.372 36.6558 124.039 36.7941 123.663L38.172 119.912C38.3103 119.535 38.5198 119.276 38.8005 119.135C39.0811 118.994 39.3559 118.973 39.6248 119.072C39.8937 119.171 40.0895 119.365 40.2121 119.654C40.3348 119.943 40.327 120.276 40.1887 120.652L38.8107 124.403ZM32.4364 133.781C32.2981 134.157 32.0886 134.416 31.8079 134.557C31.5272 134.698 31.2524 134.719 30.9836 134.62C30.7147 134.521 30.5189 134.327 30.3962 134.038C30.2736 133.749 30.2814 133.416 30.4197 133.04L31.7976 129.289C31.9359 128.912 32.1454 128.654 32.4261 128.513C32.7068 128.371 32.9816 128.35 33.2505 128.449C33.5194 128.548 33.7151 128.742 33.8378 129.031C33.9604 129.32 33.9526 129.653 33.8143 130.03L32.4364 133.781ZM36.2294 123.455C36.0911 123.832 35.8816 124.09 35.6009 124.231C35.3202 124.372 35.0455 124.394 34.7766 124.295C34.5077 124.196 34.3119 124.002 34.1893 123.713C34.0666 123.424 34.0744 123.091 34.2127 122.714L35.5907 118.963C35.7289 118.587 35.9384 118.328 36.2191 118.187C36.4998 118.046 36.7746 118.025 37.0435 118.124C37.3124 118.223 37.5081 118.417 37.6308 118.706C37.7534 118.995 37.7456 119.328 37.6073 119.704L36.2294 123.455ZM30.8033 130.251C30.665 130.627 30.4555 130.886 30.1748 131.027C29.8941 131.168 29.6194 131.189 29.3505 131.091C29.0816 130.992 28.8858 130.798 28.7632 130.509C28.6405 130.219 28.6483 129.887 28.7866 129.51L32.0611 120.596C32.1993 120.22 32.4088 119.961 32.6895 119.82C32.9702 119.679 33.245 119.658 33.5139 119.757C33.7828 119.856 33.9785 120.05 34.1012 120.339C34.2238 120.628 34.216 120.961 34.0777 121.337L30.8033 130.251Z" fill="black"/>
<path d="M55.4348 114.148C55.2288 114.492 54.9747 114.708 54.6727 114.794C54.3706 114.88 54.0967 114.85 53.851 114.702C53.6052 114.555 53.449 114.328 53.3824 114.021C53.3158 113.714 53.3856 113.389 53.5916 113.045L55.6446 109.616C55.8506 109.272 56.1047 109.057 56.4067 108.971C56.7088 108.884 56.9827 108.915 57.2284 109.062C57.4742 109.209 57.6304 109.436 57.697 109.743C57.7636 110.05 57.6938 110.376 57.4878 110.72L55.4348 114.148ZM61.086 104.711C60.88 105.055 60.626 105.27 60.3239 105.356C60.0218 105.443 59.7479 105.412 59.5022 105.265C59.2564 105.118 59.1002 104.891 59.0336 104.584C58.967 104.277 59.0368 103.951 59.2428 103.607L61.2958 100.179C61.5018 99.8347 61.7559 99.6196 62.0579 99.5333C62.36 99.4471 62.6339 99.4775 62.8797 99.6247C63.1254 99.7719 63.2816 99.999 63.3482 100.306C63.4148 100.613 63.3451 100.938 63.139 101.283L61.086 104.711ZM53.0755 112.735C52.8695 113.08 52.6154 113.295 52.3133 113.381C52.0113 113.467 51.7374 113.437 51.4916 113.29C51.2459 113.142 51.0897 112.915 51.0231 112.608C50.9565 112.301 51.0262 111.976 51.2323 111.632L53.2852 108.203C53.4913 107.859 53.7453 107.644 54.0474 107.558C54.3494 107.472 54.6233 107.502 54.8691 107.649C55.1149 107.796 55.271 108.024 55.3376 108.33C55.4042 108.637 55.3345 108.963 55.1285 109.307L53.0755 112.735ZM57.3139 105.657C57.1079 106.002 56.8538 106.217 56.5518 106.303C56.2497 106.389 55.9758 106.359 55.73 106.212C55.4843 106.064 55.3281 105.837 55.2615 105.53C55.1949 105.223 55.2646 104.898 55.4707 104.554L57.5236 101.125C57.7297 100.781 57.9837 100.566 58.2858 100.48C58.5878 100.394 58.8617 100.424 59.1075 100.571C59.3533 100.718 59.5095 100.945 59.576 101.252C59.6426 101.559 59.5729 101.885 59.3669 102.229L57.3139 105.657ZM50.7161 111.323C50.5101 111.667 50.2561 111.882 49.954 111.968C49.652 112.054 49.378 112.024 49.1323 111.877C48.8865 111.73 48.7303 111.503 48.6637 111.196C48.5972 110.889 48.6669 110.563 48.8729 110.219L53.7515 102.072C53.9575 101.728 54.2116 101.513 54.5136 101.426C54.8157 101.34 55.0896 101.371 55.3354 101.518C55.5811 101.665 55.7373 101.892 55.8039 102.199C55.8705 102.506 55.8008 102.832 55.5947 103.176L50.7161 111.323ZM48.3568 109.91C48.1508 110.254 47.8967 110.469 47.5947 110.555C47.2926 110.642 47.0187 110.611 46.7729 110.464C46.5272 110.317 46.371 110.09 46.3044 109.783C46.2378 109.476 46.3075 109.15 46.5136 108.806L52.805 98.2997C53.011 97.9556 53.265 97.7405 53.5671 97.6542C53.8692 97.568 54.1431 97.5985 54.3888 97.7456C54.6346 97.8928 54.7908 98.1199 54.8574 98.4269C54.924 98.7339 54.8542 99.0594 54.6482 99.4035L48.3568 109.91ZM45.9975 108.497C45.7914 108.841 45.5374 109.056 45.2353 109.143C44.9333 109.229 44.6594 109.198 44.4136 109.051C44.1678 108.904 44.0117 108.677 43.9451 108.37C43.8785 108.063 43.9482 107.737 44.1542 107.393L46.2072 103.965C46.4132 103.621 46.6673 103.406 46.9693 103.319C47.2714 103.233 47.5453 103.264 47.7911 103.411C48.0368 103.558 48.193 103.785 48.2596 104.092C48.3262 104.399 48.2565 104.725 48.0504 105.069L45.9975 108.497ZM51.6487 99.0597C51.4426 99.4038 51.1886 99.619 50.8865 99.7052C50.5845 99.7914 50.3106 99.761 50.0648 99.6138C49.819 99.4666 49.6629 99.2395 49.5963 98.9326C49.5297 98.6256 49.5994 98.3 49.8054 97.956L51.8584 94.5276C52.0645 94.1835 52.3185 93.9683 52.6206 93.8821C52.9226 93.7959 53.1965 93.8263 53.4423 93.9735C53.6881 94.1207 53.8442 94.3477 53.9108 94.6547C53.9774 94.9617 53.9077 95.2872 53.7017 95.6313L51.6487 99.0597ZM43.6381 107.084C43.4321 107.428 43.178 107.644 42.876 107.73C42.5739 107.816 42.3 107.786 42.0543 107.638C41.8085 107.491 41.6523 107.264 41.5857 106.957C41.5191 106.65 41.5889 106.325 41.7949 105.981L43.8479 102.552C44.0539 102.208 44.3079 101.993 44.61 101.907C44.9121 101.82 45.186 101.851 45.4317 101.998C45.6775 102.145 45.8337 102.372 45.9003 102.679C45.9669 102.986 45.8971 103.312 45.6911 103.656L43.6381 107.084ZM49.2893 97.6469C49.0833 97.991 48.8293 98.2061 48.5272 98.2924C48.2251 98.3786 47.9512 98.3482 47.7055 98.201C47.4597 98.0538 47.3035 97.8267 47.2369 97.5198C47.1703 97.2128 47.2401 96.8872 47.4461 96.5432L49.4991 93.1148C49.7051 92.7707 49.9592 92.5555 50.2612 92.4693C50.5633 92.3831 50.8372 92.4135 51.083 92.5607C51.3287 92.7079 51.4849 92.9349 51.5515 93.2419C51.6181 93.5489 51.5484 93.8744 51.3423 94.2185L49.2893 97.6469ZM41.2788 105.671C41.0728 106.016 40.8187 106.231 40.5166 106.317C40.2146 106.403 39.9407 106.373 39.6949 106.226C39.4492 106.078 39.293 105.851 39.2264 105.544C39.1598 105.237 39.2295 104.912 39.4355 104.568L45.7269 94.0613C45.933 93.7172 46.187 93.5021 46.4891 93.4158C46.7911 93.3296 47.065 93.3601 47.3108 93.5072C47.5566 93.6544 47.7128 93.8815 47.7793 94.1885C47.8459 94.4954 47.7762 94.821 47.5702 95.165L41.2788 105.671Z" fill="black"/>
<path d="M69.893 92.0831C69.6264 92.3828 69.3367 92.5468 69.0239 92.5752C68.7111 92.6036 68.4476 92.5226 68.2336 92.3322C68.0196 92.1418 67.9085 91.8896 67.9003 91.5756C67.8921 91.2616 68.0213 90.9548 68.2878 90.6551L74.5995 83.5602C74.8661 83.2606 75.1558 83.0965 75.4686 83.0681C75.7815 83.0397 76.0449 83.1207 76.2589 83.3111C76.473 83.5015 76.5841 83.7537 76.5923 84.0677C76.6005 84.3817 76.4713 84.6886 76.2047 84.9882L69.893 92.0831ZM67.8384 90.2553C67.5718 90.5549 67.2821 90.719 66.9693 90.7474C66.6564 90.7758 66.393 90.6948 66.179 90.5044C65.9649 90.314 65.8538 90.0618 65.8456 89.7478C65.8374 89.4338 65.9666 89.1269 66.2332 88.8273L68.8892 85.8417C69.1558 85.542 69.4455 85.378 69.7583 85.3496C70.0712 85.3211 70.3346 85.4021 70.5486 85.5925C70.7627 85.7829 70.8738 86.0351 70.882 86.3492C70.8902 86.6632 70.761 86.97 70.4944 87.2696L67.8384 90.2553ZM73.3219 84.0914C73.0553 84.391 72.7656 84.555 72.4528 84.5835C72.1399 84.6119 71.8765 84.5309 71.6625 84.3405C71.4484 84.1501 71.3373 83.8979 71.3291 83.5839C71.3209 83.2698 71.4501 82.963 71.7167 82.6634L74.3727 79.6777C74.6393 79.3781 74.929 79.2141 75.2418 79.1857C75.5547 79.1572 75.8181 79.2382 76.0321 79.4286C76.2461 79.619 76.3573 79.8712 76.3655 80.1853C76.3737 80.4993 76.2445 80.8061 75.9779 81.1057L73.3219 84.0914ZM65.7837 88.4275C65.5172 88.7271 65.2275 88.8911 64.9146 88.9195C64.6018 88.948 64.3384 88.867 64.1243 88.6766C63.9103 88.4862 63.7992 88.234 63.791 87.9199C63.7828 87.6059 63.912 87.2991 64.1785 86.9995L66.8346 84.0138C67.1012 83.7142 67.3909 83.5502 67.7037 83.5217C68.0165 83.4933 68.28 83.5743 68.494 83.7647C68.708 83.9551 68.8191 84.2073 68.8273 84.5213C68.8355 84.8354 68.7064 85.1422 68.4398 85.4418L65.7837 88.4275ZM73.095 80.2089C72.8285 80.5085 72.5388 80.6726 72.226 80.701C71.9131 80.7294 71.6497 80.6484 71.4357 80.458C71.2216 80.2676 71.1105 80.0154 71.1023 79.7014C71.0941 79.3874 71.2233 79.0806 71.4899 78.7809L74.1459 75.7953C74.4125 75.4956 74.7022 75.3316 75.015 75.3032C75.3279 75.2748 75.5913 75.3558 75.8053 75.5462C76.0193 75.7366 76.1305 75.9888 76.1387 76.3028C76.1469 76.6168 76.0177 76.9236 75.7511 77.2233L73.095 80.2089ZM63.7291 86.5996C63.4625 86.8993 63.1728 87.0633 62.86 87.0917C62.5472 87.1201 62.2837 87.0391 62.0697 86.8487C61.8557 86.6583 61.7446 86.4061 61.7364 86.0921C61.7282 85.7781 61.8573 85.4713 62.1239 85.1716L64.78 82.186C65.0465 81.8864 65.3362 81.7223 65.6491 81.6939C65.9619 81.6655 66.2253 81.7465 66.4394 81.9369C66.6534 82.1273 66.7645 82.3795 66.7727 82.6935C66.7809 83.0075 66.6517 83.3143 66.3852 83.614L63.7291 86.5996ZM71.0404 78.3811C70.7739 78.6807 70.4842 78.8447 70.1713 78.8732C69.8585 78.9016 69.595 78.8206 69.381 78.6302C69.167 78.4398 69.0559 78.1876 69.0477 77.8736C69.0395 77.5595 69.1687 77.2527 69.4352 76.9531L72.0913 73.9674C72.3579 73.6678 72.6475 73.5038 72.9604 73.4754C73.2732 73.4469 73.5367 73.5279 73.7507 73.7183C73.9647 73.9087 74.0758 74.1609 74.084 74.475C74.0922 74.789 73.963 75.0958 73.6965 75.3954L71.0404 78.3811ZM61.6745 84.7718C61.4079 85.0714 61.1182 85.2355 60.8054 85.2639C60.4925 85.2923 60.2291 85.2113 60.0151 85.0209C59.801 84.8305 59.6899 84.5783 59.6817 84.2643C59.6735 83.9503 59.8027 83.6434 60.0693 83.3438L62.7253 80.3582C62.9919 80.0585 63.2816 79.8945 63.5944 79.8661C63.9073 79.8377 64.1707 79.9186 64.3847 80.109C64.5987 80.2994 64.7099 80.5517 64.7181 80.8657C64.7263 81.1797 64.5971 81.4865 64.3305 81.7862L61.6745 84.7718ZM68.9858 76.5532C68.7192 76.8529 68.4295 77.0169 68.1167 77.0453C67.8038 77.0738 67.5404 76.9928 67.3264 76.8024C67.1124 76.612 67.0012 76.3598 66.993 76.0457C66.9848 75.7317 67.114 75.4249 67.3806 75.1253L70.0367 72.1396C70.3032 71.84 70.5929 71.6759 70.9057 71.6475C71.2186 71.6191 71.482 71.7001 71.696 71.8905C71.9101 72.0809 72.0212 72.3331 72.0294 72.6471C72.0376 72.9611 71.9084 73.268 71.6418 73.5676L68.9858 76.5532ZM59.6198 82.944C59.3533 83.2436 59.0636 83.4076 58.7507 83.436C58.4379 83.4645 58.1744 83.3835 57.9604 83.1931C57.7464 83.0027 57.6353 82.7505 57.6271 82.4365C57.6189 82.1224 57.7481 81.8156 58.0146 81.516L60.6707 78.5303C60.9373 78.2307 61.227 78.0667 61.5398 78.0382C61.8526 78.0098 62.1161 78.0908 62.3301 78.2812C62.5441 78.4716 62.6552 78.7238 62.6634 79.0378C62.6716 79.3519 62.5424 79.6587 62.2759 79.9583L59.6198 82.944ZM65.1033 76.7801C64.8367 77.0797 64.547 77.2437 64.2342 77.2721C63.9214 77.3006 63.6579 77.2196 63.4439 77.0292C63.2299 76.8388 63.1188 76.5866 63.1106 76.2725C63.1024 75.9585 63.2316 75.6517 63.4981 75.3521L66.1542 72.3664C66.4207 72.0668 66.7104 71.9028 67.0233 71.8743C67.3361 71.8459 67.5995 71.9269 67.8136 72.1173C68.0276 72.3077 68.1387 72.5599 68.1469 72.8739C68.1551 73.1879 68.0259 73.4948 67.7594 73.7944L65.1033 76.7801ZM57.5652 81.1161C57.2986 81.4158 57.0089 81.5798 56.6961 81.6082C56.3832 81.6366 56.1198 81.5557 55.9058 81.3653C55.6918 81.1749 55.5807 80.9226 55.5725 80.6086C55.5643 80.2946 55.6934 79.9878 55.96 79.6881L62.2717 72.5932C62.5383 72.2936 62.828 72.1296 63.1408 72.1011C63.4537 72.0727 63.7171 72.1537 63.9311 72.3441C64.1451 72.5345 64.2562 72.7867 64.2644 73.1007C64.2726 73.4148 64.1435 73.7216 63.8769 74.0212L57.5652 81.1161Z" fill="black"/>
<path d="M88.2108 73.0997C87.8931 73.3444 87.5779 73.4516 87.2652 73.4212C86.9526 73.3908 86.7089 73.2621 86.5341 73.0351C86.3593 72.8082 86.2971 72.5397 86.3476 72.2296C86.3981 71.9196 86.5822 71.6422 86.9 71.3975L98.7811 62.2477C99.0989 62.003 99.4141 61.8958 99.7267 61.9262C100.039 61.9566 100.283 62.0853 100.458 62.3122C100.633 62.5392 100.695 62.8077 100.644 63.1177C100.594 63.4278 100.41 63.7051 100.092 63.9498L88.2108 73.0997ZM86.5329 70.9209C86.2152 71.1656 85.9 71.2728 85.5873 71.2424C85.2747 71.212 85.031 71.0833 84.8562 70.8564C84.6814 70.6294 84.6192 70.3609 84.6697 70.0509C84.7202 69.7408 84.9043 69.4634 85.222 69.2187L88.3881 66.7805C88.7058 66.5358 89.021 66.4287 89.3337 66.4591C89.6463 66.4895 89.89 66.6181 90.0648 66.8451C90.2396 67.072 90.3018 67.3405 90.2513 67.6506C90.2008 67.9606 90.0167 68.238 89.699 68.4827L86.5329 70.9209ZM84.855 68.7421C84.5373 68.9868 84.2221 69.094 83.9094 69.0636C83.5968 69.0332 83.353 68.9045 83.1783 68.6776C83.0035 68.4506 82.9413 68.1821 82.9918 67.8721C83.0423 67.562 83.2264 67.2847 83.5441 67.04L86.7102 64.6017C87.0279 64.357 87.3431 64.2499 87.6558 64.2803C87.9684 64.3107 88.2121 64.4393 88.3869 64.6663C88.5617 64.8933 88.6239 65.1618 88.5734 65.4718C88.5229 65.7819 88.3388 66.0592 88.021 66.3039L84.855 68.7421ZM83.1771 66.5633C82.8593 66.808 82.5442 66.9152 82.2315 66.8848C81.9188 66.8544 81.6751 66.7257 81.5003 66.4988C81.3256 66.2718 81.2634 66.0033 81.3139 65.6933C81.3644 65.3832 81.5485 65.1059 81.8662 64.8612L89.3898 59.0671C89.7076 58.8224 90.0228 58.7153 90.3354 58.7457C90.6481 58.7761 90.8918 58.9047 91.0666 59.1317C91.2414 59.3587 91.3035 59.6272 91.253 59.9372C91.2026 60.2472 91.0184 60.5246 90.7007 60.7693L83.1771 66.5633ZM81.4992 64.3846C81.1814 64.6293 80.8662 64.7364 80.5536 64.706C80.2409 64.6756 79.9972 64.547 79.8224 64.32C79.6477 64.093 79.5855 63.8245 79.636 63.5145C79.6865 63.2044 79.8706 62.9271 80.1883 62.6824L83.3544 60.2442C83.6721 59.9995 83.9873 59.8923 84.2999 59.9227C84.6126 59.9531 84.8563 60.0818 85.0311 60.3087C85.2059 60.5357 85.268 60.8042 85.2175 61.1142C85.1671 61.4243 84.983 61.7016 84.6652 61.9463L81.4992 64.3846ZM79.8213 62.2058C79.5035 62.4505 79.1883 62.5576 78.8757 62.5272C78.563 62.4968 78.3193 62.3682 78.1445 62.1412C77.9697 61.9143 77.9076 61.6458 77.9581 61.3357C78.0085 61.0257 78.1927 60.7483 78.5104 60.5036L81.6764 58.0654C81.9942 57.8207 82.3094 57.7135 82.622 57.7439C82.9347 57.7743 83.1784 57.903 83.3532 58.1299C83.528 58.3569 83.5901 58.6254 83.5396 58.9354C83.4892 59.2455 83.305 59.5229 82.9873 59.7676L79.8213 62.2058ZM78.1433 60.027C77.8256 60.2717 77.5104 60.3788 77.1978 60.3484C76.8851 60.3181 76.6414 60.1894 76.4666 59.9624C76.2918 59.7355 76.2297 59.467 76.2802 59.1569C76.3306 58.8469 76.5147 58.5695 76.8325 58.3248L88.7137 49.1749C89.0314 48.9302 89.3466 48.8231 89.6593 48.8535C89.9719 48.8839 90.2156 49.0126 90.3904 49.2395C90.5652 49.4665 90.6273 49.735 90.5769 50.045C90.5264 50.3551 90.3423 50.6324 90.0245 50.8771L78.1433 60.027Z" fill="black"/>
<path d="M109.746 57.8635C109.388 58.0447 109.059 58.0912 108.757 58.003C108.456 57.9149 108.24 57.7431 108.111 57.4875C107.981 57.2319 107.97 56.9566 108.078 56.6614C108.185 56.3662 108.418 56.128 108.776 55.9468L112.341 54.1415C112.698 53.9603 113.028 53.9138 113.33 54.0019C113.631 54.0901 113.846 54.2619 113.976 54.5175C114.105 54.773 114.116 55.0484 114.009 55.3436C113.902 55.6388 113.669 55.877 113.311 56.0582L109.746 57.8635ZM119.56 52.894C119.202 53.0752 118.872 53.1217 118.571 53.0336C118.269 52.9454 118.054 52.7736 117.924 52.518C117.795 52.2625 117.784 51.9871 117.891 51.6919C117.999 51.3967 118.231 51.1585 118.589 50.9773L122.154 49.172C122.512 48.9908 122.841 48.9443 123.143 49.0324C123.445 49.1206 123.66 49.2924 123.789 49.548C123.919 49.8035 123.93 50.0789 123.822 50.3741C123.715 50.6693 123.482 50.9075 123.125 51.0887L119.56 52.894ZM108.504 55.4101C108.146 55.5913 107.816 55.6378 107.515 55.5497C107.213 55.4615 106.998 55.2897 106.868 55.0341C106.739 54.7786 106.728 54.5032 106.835 54.208C106.943 53.9128 107.175 53.6746 107.533 53.4934L111.098 51.6881C111.456 51.5069 111.786 51.4604 112.087 51.5485C112.389 51.6367 112.604 51.8085 112.734 52.0641C112.863 52.3196 112.874 52.595 112.767 52.8902C112.659 53.1854 112.427 53.4236 112.069 53.6048L108.504 55.4101ZM115.864 51.683C115.506 51.8642 115.176 51.9107 114.875 51.8226C114.573 51.7344 114.358 51.5626 114.229 51.307C114.099 51.0515 114.088 50.7761 114.196 50.4809C114.303 50.1857 114.535 49.9475 114.893 49.7663L118.458 47.961C118.816 47.7798 119.146 47.7333 119.447 47.8214C119.749 47.9096 119.964 48.0814 120.094 48.337C120.223 48.5925 120.234 48.8679 120.127 49.1631C120.019 49.4583 119.787 49.6965 119.429 49.8777L115.864 51.683ZM107.261 52.9568C106.904 53.1379 106.574 53.1845 106.272 53.0963C105.971 53.0082 105.756 52.8363 105.626 52.5808C105.497 52.3252 105.486 52.0498 105.593 51.7546C105.7 51.4594 105.933 51.2212 106.291 51.0401L114.763 46.75C115.12 46.5688 115.45 46.5223 115.752 46.6104C116.053 46.6986 116.268 46.8704 116.398 47.126C116.527 47.3815 116.538 47.6569 116.431 47.9521C116.324 48.2473 116.091 48.4855 115.733 48.6667L107.261 52.9568ZM106.019 50.5034C105.661 50.6846 105.332 50.7311 105.03 50.6429C104.729 50.5548 104.513 50.383 104.384 50.1274C104.254 49.8718 104.243 49.5965 104.351 49.3013C104.458 49.0061 104.691 48.7679 105.048 48.5867L115.974 43.0543C116.331 42.8731 116.661 42.8266 116.963 42.9147C117.264 43.0028 117.479 43.1747 117.609 43.4302C117.738 43.6858 117.749 43.9612 117.642 44.2564C117.535 44.5516 117.302 44.7898 116.944 44.9709L106.019 50.5034ZM104.777 48.05C104.419 48.2312 104.089 48.2777 103.788 48.1896C103.486 48.1014 103.271 47.9296 103.141 47.674C103.012 47.4185 103.001 47.1431 103.108 46.8479C103.216 46.5527 103.448 46.3145 103.806 46.1333L107.371 44.328C107.729 44.1468 108.059 44.1003 108.36 44.1884C108.662 44.2766 108.877 44.4484 109.006 44.704C109.136 44.9595 109.147 45.2349 109.039 45.5301C108.932 45.8253 108.699 46.0635 108.342 46.2447L104.777 48.05ZM114.59 43.0805C114.232 43.2617 113.903 43.3082 113.601 43.2201C113.3 43.132 113.084 42.9601 112.955 42.7045C112.825 42.449 112.814 42.1736 112.922 41.8784C113.029 41.5832 113.262 41.345 113.62 41.1638L117.185 39.3585C117.542 39.1773 117.872 39.1308 118.174 39.219C118.475 39.3071 118.69 39.4789 118.82 39.7345C118.949 39.9901 118.96 40.2654 118.853 40.5606C118.746 40.8558 118.513 41.094 118.155 41.2752L114.59 43.0805ZM103.534 45.5966C103.177 45.7778 102.847 45.8243 102.545 45.7362C102.244 45.6481 102.028 45.4762 101.899 45.2207C101.77 44.9651 101.759 44.6897 101.866 44.3945C101.973 44.0993 102.206 43.8611 102.564 43.68L106.129 41.8746C106.487 41.6935 106.816 41.6469 107.118 41.7351C107.419 41.8232 107.635 41.9951 107.764 42.2506C107.893 42.5062 107.904 42.7816 107.797 43.0768C107.69 43.372 107.457 43.6101 107.099 43.7913L103.534 45.5966ZM113.348 40.6272C112.99 40.8083 112.66 40.8549 112.359 40.7667C112.057 40.6786 111.842 40.5067 111.712 40.2512C111.583 39.9956 111.572 39.7202 111.679 39.425C111.787 39.1298 112.019 38.8916 112.377 38.7105L115.942 36.9051C116.3 36.724 116.63 36.6774 116.931 36.7656C117.233 36.8537 117.448 37.0256 117.578 37.2811C117.707 37.5367 117.718 37.8121 117.611 38.1073C117.503 38.4025 117.271 38.6407 116.913 38.8218L113.348 40.6272ZM102.292 43.1433C101.934 43.3245 101.604 43.371 101.303 43.2828C101.001 43.1947 100.786 43.0229 100.657 42.7673C100.527 42.5117 100.516 42.2364 100.624 41.9412C100.731 41.646 100.964 41.4078 101.321 41.2266L112.246 35.6942C112.604 35.513 112.934 35.4665 113.235 35.5546C113.537 35.6427 113.752 35.8146 113.882 36.0701C114.011 36.3257 114.022 36.6011 113.915 36.8963C113.807 37.1915 113.575 37.4297 113.217 37.6108L102.292 43.1433Z" fill="black"/>
<path d="M133.744 46.9086C133.359 47.0199 133.026 47.0042 132.747 46.8614C132.467 46.7186 132.287 46.5096 132.208 46.2344C132.128 45.9592 132.169 45.6866 132.329 45.4166C132.49 45.1465 132.763 44.9559 133.148 44.8446L147.555 40.6823C147.94 40.571 148.273 40.5867 148.552 40.7295C148.832 40.8723 149.012 41.0813 149.091 41.3565C149.171 41.6317 149.13 41.9043 148.97 42.1743C148.809 42.4444 148.536 42.635 148.151 42.7463L133.744 46.9086ZM132.981 44.2666C132.596 44.378 132.263 44.3622 131.983 44.2194C131.703 44.0766 131.524 43.8676 131.444 43.5924C131.365 43.3172 131.405 43.0446 131.566 42.7746C131.726 42.5046 131.999 42.3139 132.385 42.2026L136.224 41.0935C136.609 40.9822 136.941 40.9979 137.221 41.1407C137.501 41.2835 137.681 41.4925 137.76 41.7677C137.84 42.0429 137.799 42.3155 137.639 42.5855C137.478 42.8555 137.205 43.0462 136.82 43.1575L132.981 44.2666ZM132.218 41.6247C131.832 41.736 131.5 41.7203 131.22 41.5775C130.94 41.4347 130.76 41.2257 130.681 40.9505C130.601 40.6753 130.642 40.4027 130.803 40.1327C130.963 39.8626 131.236 39.672 131.621 39.5607L135.46 38.4515C135.846 38.3402 136.178 38.356 136.458 38.4988C136.738 38.6416 136.917 38.8506 136.997 39.1258C137.076 39.401 137.036 39.6736 136.875 39.9436C136.715 40.2136 136.442 40.4042 136.057 40.5156L132.218 41.6247ZM131.454 38.9827C131.069 39.0941 130.736 39.0783 130.457 38.9355C130.177 38.7927 129.997 38.5837 129.918 38.3085C129.838 38.0333 129.879 37.7607 130.039 37.4907C130.2 37.2207 130.473 37.03 130.858 36.9187L134.697 35.8096C135.082 35.6983 135.415 35.714 135.695 35.8568C135.974 35.9996 136.154 36.2086 136.234 36.4838C136.313 36.759 136.273 37.0316 136.112 37.3016C135.952 37.5716 135.679 37.7623 135.293 37.8736L131.454 38.9827ZM130.691 36.3408C130.306 36.4521 129.973 36.4364 129.693 36.2936C129.414 36.1508 129.234 35.9418 129.154 35.6666C129.075 35.3914 129.115 35.1188 129.276 34.8488C129.436 34.5787 129.709 34.3881 130.095 34.2768L133.934 33.1676C134.319 33.0563 134.652 33.0721 134.931 33.2149C135.211 33.3577 135.391 33.5667 135.47 33.8419C135.55 34.1171 135.509 34.3897 135.349 34.6597C135.188 34.9297 134.915 35.1203 134.53 35.2317L130.691 36.3408ZM129.928 33.6988C129.542 33.8102 129.21 33.7944 128.93 33.6516C128.65 33.5088 128.471 33.2998 128.391 33.0246C128.312 32.7494 128.352 32.4768 128.513 32.2068C128.673 31.9368 128.946 31.7461 129.331 31.6348L133.17 30.5257C133.556 30.4144 133.888 30.4301 134.168 30.5729C134.448 30.7157 134.628 30.9247 134.707 31.1999C134.787 31.4751 134.746 31.7477 134.586 32.0177C134.425 32.2877 134.152 32.4784 133.767 32.5897L129.928 33.6988ZM129.164 31.0569C128.779 31.1682 128.447 31.1525 128.167 31.0097C127.887 30.8669 127.707 30.6579 127.628 30.3827C127.548 30.1075 127.589 29.8349 127.749 29.5649C127.91 29.2948 128.183 29.1042 128.568 28.9929L132.407 27.8837C132.792 27.7724 133.125 27.7882 133.405 27.931C133.685 28.0738 133.864 28.2827 133.944 28.558C134.023 28.8332 133.983 29.1058 133.822 29.3758C133.662 29.6458 133.389 29.8364 133.004 29.9478L129.164 31.0569Z" fill="black"/>
<path d="M162.101 40.3616C161.702 40.3991 161.378 40.3217 161.13 40.1292C160.882 39.9368 160.744 39.698 160.717 39.4128C160.691 39.1276 160.781 38.8673 160.989 38.6319C161.197 38.3966 161.501 38.2601 161.9 38.2226L171.355 37.3336C171.754 37.2961 172.078 37.3735 172.326 37.566C172.574 37.7584 172.712 37.9973 172.739 38.2825C172.765 38.5677 172.675 38.8279 172.467 39.0633C172.259 39.2986 171.955 39.4351 171.556 39.4726L162.101 40.3616ZM164.582 37.3662C164.183 37.4038 163.859 37.3263 163.611 37.1339C163.362 36.9414 163.225 36.7026 163.198 36.4174C163.171 36.1322 163.262 35.8719 163.47 35.6366C163.678 35.4012 163.982 35.2648 164.381 35.2272L168.359 34.8531C168.759 34.8156 169.082 34.893 169.331 35.0855C169.579 35.2779 169.716 35.5168 169.743 35.802C169.77 36.0872 169.679 36.3474 169.471 36.5828C169.263 36.8181 168.96 36.9546 168.56 36.9921L164.582 37.3662ZM164.324 34.6283C163.925 34.6658 163.601 34.5884 163.353 34.3959C163.105 34.2035 162.967 33.9647 162.941 33.6795C162.914 33.3943 163.004 33.134 163.212 32.8986C163.42 32.6633 163.724 32.5268 164.123 32.4893L168.102 32.1152C168.501 32.0777 168.825 32.1551 169.073 32.3476C169.321 32.54 169.459 32.7788 169.486 33.064C169.513 33.3492 169.422 33.6095 169.214 33.8449C169.006 34.0802 168.702 34.2167 168.303 34.2542L164.324 34.6283ZM164.067 31.8904C163.668 31.9279 163.344 31.8505 163.096 31.658C162.847 31.4656 162.71 31.2267 162.683 30.9415C162.656 30.6563 162.747 30.3961 162.955 30.1607C163.163 29.9254 163.467 29.7889 163.866 29.7514L167.844 29.3773C168.244 29.3397 168.568 29.4172 168.816 29.6096C169.064 29.8021 169.202 30.0409 169.228 30.3261C169.255 30.6113 169.165 30.8716 168.957 31.1069C168.749 31.3423 168.445 31.4788 168.046 31.5163L164.067 31.8904ZM163.81 29.1525C163.41 29.19 163.087 29.1125 162.838 28.9201C162.59 28.7276 162.452 28.4888 162.426 28.2036C162.399 27.9184 162.489 27.6581 162.697 27.4228C162.906 27.1874 163.209 27.051 163.608 27.0135L167.587 26.6394C167.986 26.6018 168.31 26.6793 168.558 26.8717C168.807 27.0642 168.944 27.303 168.971 27.5882C168.998 27.8734 168.907 28.1337 168.699 28.369C168.491 28.6044 168.187 28.7408 167.788 28.7784L163.81 29.1525ZM163.552 26.4145C163.153 26.4521 162.829 26.3746 162.581 26.1822C162.333 25.9897 162.195 25.7509 162.168 25.4657C162.141 25.1805 162.232 24.9202 162.44 24.6849C162.648 24.4495 162.952 24.3131 163.351 24.2755L167.33 23.9014C167.729 23.8639 168.053 23.9414 168.301 24.1338C168.549 24.3262 168.687 24.5651 168.714 24.8503C168.74 25.1355 168.65 25.3957 168.442 25.6311C168.234 25.8665 167.93 26.0029 167.531 26.0404L163.552 26.4145ZM160.557 23.934C160.158 23.9716 159.834 23.8941 159.585 23.7017C159.337 23.5092 159.2 23.2704 159.173 22.9852C159.146 22.7 159.237 22.4397 159.445 22.2044C159.653 21.969 159.956 21.8326 160.356 21.795L169.81 20.9061C170.209 20.8685 170.533 20.946 170.781 21.1384C171.03 21.3309 171.167 21.5697 171.194 21.8549C171.221 22.1401 171.13 22.4004 170.922 22.6357C170.714 22.8711 170.41 23.0075 170.011 23.0451L160.557 23.934Z" fill="black"/>
<path d="M185.706 39.2152C185.307 39.1776 185.003 39.0412 184.795 38.8058C184.587 38.5705 184.497 38.3102 184.523 38.025C184.55 37.7398 184.688 37.501 184.936 37.3085C185.184 37.1161 185.508 37.0386 185.907 37.0762L189.886 37.4502C190.285 37.4878 190.589 37.6242 190.797 37.8596C191.005 38.0949 191.096 38.3552 191.069 38.6404C191.042 38.9256 190.904 39.1644 190.656 39.3569C190.408 39.5493 190.084 39.6268 189.685 39.5893L185.706 39.2152ZM196.658 40.2449C196.259 40.2074 195.955 40.0709 195.747 39.8356C195.539 39.6002 195.448 39.3399 195.475 39.0547C195.502 38.7695 195.639 38.5307 195.888 38.3383C196.136 38.1458 196.46 38.0684 196.859 38.1059L200.838 38.48C201.237 38.5175 201.541 38.654 201.749 38.8893C201.957 39.1247 202.047 39.385 202.02 39.6702C201.994 39.9554 201.856 40.1942 201.608 40.3866C201.36 40.5791 201.036 40.6565 200.636 40.619L196.658 40.2449ZM185.964 36.4772C185.564 36.4397 185.261 36.3033 185.053 36.0679C184.845 35.8325 184.754 35.5723 184.781 35.2871C184.808 35.0019 184.945 34.763 185.193 34.5706C185.442 34.3781 185.766 34.3007 186.165 34.3382L190.143 34.7123C190.543 34.7499 190.846 34.8863 191.054 35.1217C191.262 35.357 191.353 35.6173 191.326 35.9025C191.299 36.1877 191.162 36.4265 190.914 36.619C190.665 36.8114 190.342 36.8889 189.942 36.8513L185.964 36.4772ZM196.915 37.507C196.516 37.4694 196.212 37.333 196.004 37.0976C195.796 36.8623 195.706 36.602 195.733 36.3168C195.759 36.0316 195.897 35.7928 196.145 35.6003C196.393 35.4079 196.717 35.3304 197.116 35.368L201.095 35.7421C201.494 35.7796 201.798 35.9161 202.006 36.1514C202.214 36.3868 202.305 36.647 202.278 36.9322C202.251 37.2174 202.114 37.4563 201.865 37.6487C201.617 37.8412 201.293 37.9186 200.894 37.8811L196.915 37.507ZM186.221 33.7393C185.822 33.7018 185.518 33.5653 185.31 33.33C185.102 33.0946 185.011 32.8343 185.038 32.5491C185.065 32.2639 185.203 32.0251 185.451 31.8327C185.699 31.6402 186.023 31.5628 186.422 31.6003L190.401 31.9744C190.8 32.0119 191.104 32.1484 191.312 32.3837C191.52 32.6191 191.61 32.8794 191.584 33.1646C191.557 33.4498 191.419 33.6886 191.171 33.881C190.923 34.0735 190.599 34.1509 190.2 34.1134L186.221 33.7393ZM197.173 34.7691C196.774 34.7315 196.47 34.5951 196.262 34.3597C196.054 34.1244 195.963 33.8641 195.99 33.5789C196.017 33.2937 196.154 33.0549 196.403 32.8624C196.651 32.67 196.975 32.5925 197.374 32.6301L201.352 33.0041C201.752 33.0417 202.055 33.1781 202.263 33.4135C202.472 33.6488 202.562 33.9091 202.535 34.1943C202.509 34.4795 202.371 34.7183 202.123 34.9108C201.874 35.1032 201.551 35.1807 201.151 35.1431L197.173 34.7691ZM186.479 31.0014C186.079 30.9639 185.776 30.8274 185.568 30.592C185.36 30.3567 185.269 30.0964 185.296 29.8112C185.323 29.526 185.46 29.2872 185.708 29.0947C185.957 28.9023 186.28 28.8248 186.68 28.8624L190.658 29.2365C191.057 29.274 191.361 29.4105 191.569 29.6458C191.777 29.8812 191.868 30.1414 191.841 30.4266C191.814 30.7119 191.677 30.9507 191.428 31.1431C191.18 31.3356 190.856 31.413 190.457 31.3755L186.479 31.0014ZM194.692 31.7737C194.293 31.7362 193.989 31.5997 193.781 31.3644C193.573 31.129 193.483 30.8687 193.509 30.5835C193.536 30.2983 193.674 30.0595 193.922 29.8671C194.17 29.6746 194.494 29.5972 194.893 29.6347L201.61 30.2662C202.009 30.3038 202.313 30.4402 202.521 30.6756C202.729 30.9109 202.82 31.1712 202.793 31.4564C202.766 31.7416 202.628 31.9804 202.38 32.1729C202.132 32.3653 201.808 32.4428 201.409 32.4052L194.692 31.7737ZM186.736 28.2635C186.337 28.2259 186.033 28.0895 185.825 27.8541C185.617 27.6188 185.526 27.3585 185.553 27.0733C185.58 26.7881 185.718 26.5493 185.966 26.3568C186.214 26.1644 186.538 26.0869 186.937 26.1245L201.867 27.5283C202.267 27.5658 202.57 27.7023 202.778 27.9376C202.986 28.173 203.077 28.4333 203.05 28.7185C203.023 29.0037 202.886 29.2425 202.638 29.4349C202.389 29.6274 202.066 29.7048 201.666 29.6673L186.736 28.2635ZM186.993 25.5255C186.594 25.488 186.29 25.3516 186.082 25.1162C185.874 24.8808 185.784 24.6206 185.811 24.3354C185.837 24.0502 185.975 23.8113 186.223 23.6189C186.471 23.4265 186.795 23.349 187.195 23.3865L193.911 24.0181C194.31 24.0556 194.614 24.1921 194.822 24.4274C195.03 24.6628 195.121 24.923 195.094 25.2082C195.067 25.4934 194.929 25.7323 194.681 25.9247C194.433 26.1172 194.109 26.1946 193.71 26.1571L186.993 25.5255ZM197.945 26.5553C197.546 26.5177 197.242 26.3813 197.034 26.1459C196.826 25.9106 196.735 25.6503 196.762 25.3651C196.789 25.0799 196.927 24.8411 197.175 24.6486C197.423 24.4562 197.747 24.3787 198.146 24.4163L202.125 24.7904C202.524 24.8279 202.828 24.9644 203.036 25.1997C203.244 25.4351 203.334 25.6953 203.308 25.9805C203.281 26.2657 203.143 26.5046 202.895 26.697C202.647 26.8895 202.323 26.9669 201.924 26.9294L197.945 26.5553ZM187.251 22.7876C186.852 22.7501 186.548 22.6136 186.34 22.3783C186.132 22.1429 186.041 21.8826 186.068 21.5974C186.095 21.3122 186.232 21.0734 186.481 20.881C186.729 20.6885 187.053 20.6111 187.452 20.6486L191.431 21.0227C191.83 21.0602 192.133 21.1967 192.342 21.432C192.55 21.6674 192.64 21.9277 192.613 22.2129C192.587 22.4981 192.449 22.7369 192.201 22.9293C191.952 23.1218 191.629 23.1992 191.229 23.1617L187.251 22.7876ZM198.203 23.8174C197.803 23.7798 197.5 23.6434 197.292 23.408C197.084 23.1727 196.993 22.9124 197.02 22.6272C197.047 22.342 197.184 22.1032 197.432 21.9107C197.681 21.7183 198.004 21.6408 198.404 21.6784L202.382 22.0524C202.781 22.09 203.085 22.2264 203.293 22.4618C203.501 22.6971 203.592 22.9574 203.565 23.2426C203.538 23.5278 203.401 23.7666 203.152 23.9591C202.904 24.1515 202.58 24.229 202.181 24.1914L198.203 23.8174Z" fill="black"/>
<path d="M211.849 42.7463C211.464 42.635 211.191 42.4443 211.03 42.1743C210.87 41.9043 210.829 41.6317 210.909 41.3565C210.988 41.0813 211.168 40.8723 211.448 40.7295C211.727 40.5867 212.06 40.571 212.445 40.6823L226.852 44.8446C227.237 44.9559 227.51 45.1465 227.671 45.4165C227.831 45.6866 227.872 45.9592 227.792 46.2344C227.713 46.5096 227.533 46.7186 227.254 46.8614C226.974 47.0042 226.641 47.0199 226.256 46.9086L211.849 42.7463ZM212.612 40.1044C212.227 39.9931 211.954 39.8024 211.794 39.5324C211.633 39.2624 211.593 38.9898 211.672 38.7146C211.752 38.4394 211.931 38.2304 212.211 38.0876C212.491 37.9448 212.823 37.929 213.209 38.0403L217.048 39.1495C217.433 39.2608 217.706 39.4515 217.866 39.7215C218.027 39.9915 218.067 40.2641 217.988 40.5393C217.908 40.8145 217.729 41.0235 217.449 41.1663C217.169 41.3091 216.837 41.3248 216.451 41.2135L212.612 40.1044ZM213.376 37.4624C212.99 37.3511 212.717 37.1604 212.557 36.8904C212.396 36.6204 212.356 36.3478 212.435 36.0726C212.515 35.7974 212.694 35.5884 212.974 35.4456C213.254 35.3028 213.587 35.2871 213.972 35.3984L217.811 36.5075C218.196 36.6188 218.469 36.8095 218.63 37.0795C218.79 37.3495 218.831 37.6221 218.751 37.8973C218.672 38.1725 218.492 38.3815 218.212 38.5243C217.932 38.6671 217.6 38.6829 217.215 38.5716L213.376 37.4624ZM214.139 34.8205C213.754 34.7092 213.481 34.5185 213.32 34.2485C213.16 33.9785 213.119 33.7059 213.199 33.4307C213.278 33.1555 213.458 32.9465 213.738 32.8037C214.017 32.6609 214.35 32.6451 214.735 32.7564L223.858 35.3921C224.243 35.5035 224.516 35.6941 224.677 35.9641C224.837 36.2341 224.878 36.5067 224.798 36.7819C224.719 37.0572 224.539 37.2662 224.259 37.4089C223.98 37.5517 223.647 37.5675 223.262 37.4562L214.139 34.8205ZM214.902 32.1785C214.517 32.0672 214.244 31.8765 214.083 31.6065C213.923 31.3365 213.882 31.0639 213.962 30.7887C214.041 30.5135 214.221 30.3045 214.501 30.1617C214.781 30.0189 215.113 30.0032 215.498 30.1145L219.338 31.2236C219.723 31.3349 219.996 31.5256 220.156 31.7956C220.317 32.0656 220.357 32.3382 220.278 32.6134C220.198 32.8886 220.019 33.0976 219.739 33.2404C219.459 33.3832 219.127 33.399 218.741 33.2877L214.902 32.1785ZM215.665 29.5366C215.28 29.4253 215.007 29.2346 214.847 28.9646C214.686 28.6946 214.646 28.422 214.725 28.1468C214.805 27.8716 214.984 27.6626 215.264 27.5198C215.544 27.377 215.876 27.3612 216.262 27.4725L220.101 28.5817C220.486 28.693 220.759 28.8837 220.92 29.1537C221.08 29.4237 221.121 29.6963 221.041 29.9715C220.962 30.2467 220.782 30.4557 220.502 30.5985C220.222 30.7413 219.89 30.757 219.504 30.6457L215.665 29.5366ZM216.429 26.8946C216.043 26.7833 215.771 26.5926 215.61 26.3226C215.449 26.0526 215.409 25.78 215.488 25.5048C215.568 25.2296 215.748 25.0206 216.027 24.8778C216.307 24.735 216.64 24.7193 217.025 24.8306L231.432 28.9929C231.817 29.1042 232.09 29.2948 232.251 29.5648C232.411 29.8348 232.452 30.1075 232.372 30.3827C232.293 30.6579 232.113 30.8669 231.833 31.0097C231.553 31.1525 231.221 31.1682 230.836 31.0569L216.429 26.8946Z" fill="black"/>
<path d="M259.908 63.9498C259.59 63.7051 259.406 63.4278 259.356 63.1177C259.305 62.8077 259.367 62.5392 259.542 62.3122C259.717 62.0853 259.961 61.9566 260.273 61.9262C260.586 61.8958 260.901 62.003 261.219 62.2477L264.385 64.6859C264.703 64.9306 264.887 65.2079 264.937 65.518C264.988 65.828 264.926 66.0965 264.751 66.3235C264.576 66.5504 264.332 66.6791 264.02 66.7095C263.707 66.7399 263.392 66.6327 263.074 66.388L259.908 63.9498ZM261.586 61.771C261.268 61.5263 261.084 61.249 261.034 60.9389C260.983 60.6289 261.045 60.3604 261.22 60.1334C261.395 59.9065 261.639 59.7778 261.951 59.7474C262.264 59.717 262.579 59.8242 262.897 60.0689L266.063 62.5071C266.381 62.7518 266.565 63.0291 266.615 63.3392C266.666 63.6492 266.603 63.9177 266.429 64.1447C266.254 64.3717 266.01 64.5003 265.698 64.5307C265.385 64.5611 265.07 64.454 264.752 64.2093L261.586 61.771ZM263.264 59.5923C262.946 59.3476 262.762 59.0702 262.712 58.7601C262.661 58.4501 262.723 58.1816 262.898 57.9546C263.073 57.7277 263.316 57.599 263.629 57.5686C263.942 57.5382 264.257 57.6454 264.575 57.8901L267.741 60.3283C268.058 60.573 268.243 60.8504 268.293 61.1604C268.344 61.4705 268.281 61.739 268.107 61.9659C267.932 62.1929 267.688 62.3215 267.375 62.3519C267.063 62.3823 266.748 62.2752 266.43 62.0305L263.264 59.5923ZM264.942 57.4135C264.624 57.1688 264.44 56.8914 264.389 56.5814C264.339 56.2713 264.401 56.0028 264.576 55.7759C264.751 55.5489 264.994 55.4202 265.307 55.3898C265.62 55.3594 265.935 55.4666 266.253 55.7113L273.776 61.5053C274.094 61.75 274.278 62.0274 274.329 62.3374C274.379 62.6475 274.317 62.916 274.142 63.1429C273.967 63.3699 273.724 63.4986 273.411 63.529C273.098 63.5594 272.783 63.4522 272.465 63.2075L264.942 57.4135ZM266.62 55.2347C266.302 54.99 266.118 54.7126 266.067 54.4026C266.017 54.0925 266.079 53.824 266.254 53.5971C266.429 53.3701 266.672 53.2414 266.985 53.2111C267.298 53.1807 267.613 53.2878 267.931 53.5325L271.097 55.9707C271.414 56.2154 271.598 56.4928 271.649 56.8028C271.699 57.1129 271.637 57.3814 271.462 57.6083C271.288 57.8353 271.044 57.964 270.731 57.9944C270.419 58.0247 270.103 57.9176 269.786 57.6729L266.62 55.2347ZM268.298 53.0559C267.98 52.8112 267.796 52.5338 267.745 52.2238C267.695 51.9137 267.757 51.6452 267.932 51.4183C268.106 51.1913 268.35 51.0627 268.663 51.0323C268.976 51.0019 269.291 51.109 269.608 51.3537L272.774 53.7919C273.092 54.0366 273.276 54.314 273.327 54.624C273.377 54.9341 273.315 55.2026 273.14 55.4295C272.966 55.6565 272.722 55.7852 272.409 55.8156C272.097 55.846 271.781 55.7388 271.464 55.4941L268.298 53.0559ZM269.975 50.8771C269.658 50.6324 269.474 50.355 269.423 50.045C269.373 49.735 269.435 49.4665 269.61 49.2395C269.784 49.0125 270.028 48.8839 270.341 48.8535C270.653 48.8231 270.969 48.9302 271.286 49.1749L283.168 58.3248C283.485 58.5695 283.669 58.8469 283.72 59.1569C283.77 59.467 283.708 59.7355 283.533 59.9624C283.359 60.1894 283.115 60.318 282.802 60.3484C282.49 60.3788 282.174 60.2717 281.857 60.027L269.975 50.8771Z" fill="black"/>
<path d="M280.14 80.8789C279.873 80.5793 279.744 80.2725 279.752 79.9584C279.76 79.6444 279.871 79.3922 280.085 79.2018C280.299 79.0114 280.563 78.9304 280.876 78.9588C281.189 78.9873 281.478 79.1513 281.745 79.4509L291.712 90.6551C291.979 90.9548 292.108 91.2616 292.1 91.5756C292.092 91.8896 291.98 92.1418 291.766 92.3322C291.552 92.5226 291.289 92.6036 290.976 92.5752C290.663 92.5468 290.374 92.3828 290.107 92.0831L280.14 80.8789ZM282.194 79.0511C281.928 78.7515 281.799 78.4446 281.807 78.1306C281.815 77.8166 281.926 77.5644 282.14 77.374C282.354 77.1836 282.617 77.1026 282.93 77.131C283.243 77.1594 283.533 77.3235 283.799 77.6231L286.455 80.6087C286.722 80.9084 286.851 81.2152 286.843 81.5292C286.835 81.8432 286.724 82.0955 286.51 82.2859C286.296 82.4763 286.032 82.5572 285.719 82.5288C285.407 82.5004 285.117 82.3364 284.85 82.0367L282.194 79.0511ZM284.249 77.2233C283.982 76.9236 283.853 76.6168 283.861 76.3028C283.87 75.9888 283.981 75.7366 284.195 75.5462C284.409 75.3558 284.672 75.2748 284.985 75.3032C285.298 75.3316 285.588 75.4956 285.854 75.7953L288.51 78.7809C288.777 79.0805 288.906 79.3874 288.898 79.7014C288.889 80.0154 288.778 80.2676 288.564 80.458C288.35 80.6484 288.087 80.7294 287.774 80.701C287.461 80.6726 287.172 80.5085 286.905 80.2089L284.249 77.2233ZM286.304 75.3954C286.037 75.0958 285.908 74.789 285.916 74.4749C285.924 74.1609 286.035 73.9087 286.249 73.7183C286.463 73.5279 286.727 73.4469 287.04 73.4754C287.352 73.5038 287.642 73.6678 287.909 73.9674L294.22 81.0624C294.487 81.362 294.616 81.6688 294.608 81.9828C294.6 82.2969 294.489 82.5491 294.275 82.7395C294.061 82.9299 293.797 83.0109 293.484 82.9824C293.172 82.954 292.882 82.79 292.615 82.4903L286.304 75.3954ZM288.358 73.5676C288.092 73.268 287.962 72.9611 287.971 72.6471C287.979 72.3331 288.09 72.0809 288.304 71.8905C288.518 71.7001 288.781 71.6191 289.094 71.6475C289.407 71.6759 289.697 71.84 289.963 72.1396L292.619 75.1253C292.886 75.4249 293.015 75.7317 293.007 76.0457C292.999 76.3598 292.888 76.612 292.674 76.8024C292.46 76.9928 292.196 77.0737 291.883 77.0453C291.57 77.0169 291.281 76.8529 291.014 76.5532L288.358 73.5676ZM290.413 71.7398C290.146 71.4401 290.017 71.1333 290.025 70.8193C290.033 70.5053 290.145 70.2531 290.359 70.0627C290.573 69.8723 290.836 69.7913 291.149 69.8197C291.462 69.8481 291.751 70.0121 292.018 70.3118L294.674 73.2974C294.941 73.5971 295.07 73.9039 295.062 74.2179C295.053 74.5319 294.942 74.7841 294.728 74.9745C294.514 75.1649 294.251 75.2459 293.938 75.2175C293.625 75.1891 293.335 75.025 293.069 74.7254L290.413 71.7398ZM292.467 69.9119C292.201 69.6123 292.072 69.3055 292.08 68.9915C292.088 68.6774 292.199 68.4252 292.413 68.2348C292.627 68.0444 292.891 67.9634 293.204 67.9919C293.516 68.0203 293.806 68.1843 294.073 68.4839L304.04 79.6881C304.307 79.9878 304.436 80.2946 304.428 80.6086C304.419 80.9226 304.308 81.1748 304.094 81.3652C303.88 81.5556 303.617 81.6366 303.304 81.6082C302.991 81.5798 302.701 81.4158 302.435 81.1161L292.467 69.9119Z" fill="black"/>
<path d="M299.687 106.001C299.481 105.657 299.411 105.332 299.477 105.025C299.544 104.718 299.7 104.491 299.946 104.343C300.192 104.196 300.466 104.166 300.768 104.252C301.07 104.338 301.324 104.553 301.53 104.897L303.583 108.326C303.789 108.67 303.859 108.995 303.792 109.302C303.725 109.609 303.569 109.837 303.323 109.984C303.078 110.131 302.804 110.161 302.502 110.075C302.2 109.989 301.946 109.774 301.74 109.43L299.687 106.001ZM300.633 102.229C300.427 101.885 300.357 101.559 300.424 101.252C300.491 100.945 300.647 100.718 300.893 100.571C301.138 100.424 301.412 100.394 301.714 100.48C302.016 100.566 302.27 100.781 302.476 101.125L307.355 109.272C307.561 109.616 307.631 109.942 307.564 110.249C307.498 110.556 307.341 110.783 307.096 110.93C306.85 111.077 306.576 111.108 306.274 111.022C305.972 110.935 305.718 110.72 305.512 110.376L300.633 102.229ZM301.58 98.4569C301.374 98.1128 301.304 97.7873 301.371 97.4803C301.437 97.1733 301.593 96.9463 301.839 96.7991C302.085 96.6519 302.359 96.6215 302.661 96.7077C302.963 96.7939 303.217 97.0091 303.423 97.3532L305.476 100.782C305.682 101.126 305.752 101.451 305.685 101.758C305.618 102.065 305.462 102.292 305.217 102.439C304.971 102.587 304.697 102.617 304.395 102.531C304.093 102.445 303.839 102.229 303.633 101.885L301.58 98.4569ZM307.231 107.894C307.025 107.55 306.955 107.225 307.022 106.918C307.088 106.611 307.245 106.384 307.49 106.236C307.736 106.089 308.01 106.059 308.312 106.145C308.614 106.231 308.868 106.446 309.074 106.791L311.127 110.219C311.333 110.563 311.403 110.889 311.336 111.196C311.27 111.503 311.114 111.73 310.868 111.877C310.622 112.024 310.348 112.054 310.046 111.968C309.744 111.882 309.49 111.667 309.284 111.323L307.231 107.894ZM303.939 97.0441C303.733 96.7 303.663 96.3745 303.73 96.0675C303.796 95.7605 303.953 95.5335 304.198 95.3863C304.444 95.2391 304.718 95.2087 305.02 95.2949C305.322 95.3811 305.576 95.5963 305.782 95.9404L307.835 99.3688C308.041 99.7128 308.111 100.038 308.044 100.345C307.978 100.652 307.822 100.879 307.576 101.027C307.33 101.174 307.056 101.204 306.754 101.118C306.452 101.032 306.198 100.817 305.992 100.473L303.939 97.0441ZM309.59 106.481C309.384 106.137 309.314 105.812 309.381 105.505C309.448 105.198 309.604 104.971 309.85 104.824C310.095 104.676 310.369 104.646 310.671 104.732C310.973 104.818 311.227 105.034 311.433 105.378L313.486 108.806C313.692 109.15 313.762 109.476 313.696 109.783C313.629 110.09 313.473 110.317 313.227 110.464C312.981 110.611 312.707 110.642 312.405 110.555C312.103 110.469 311.849 110.254 311.643 109.91L309.59 106.481ZM306.298 95.6313C306.092 95.2872 306.023 94.9617 306.089 94.6547C306.156 94.3477 306.312 94.1207 306.558 93.9735C306.804 93.8263 307.077 93.7959 307.379 93.8821C307.682 93.9683 307.936 94.1835 308.142 94.5276L310.195 97.956C310.401 98.3 310.47 98.6256 310.404 98.9326C310.337 99.2395 310.181 99.4666 309.935 99.6138C309.689 99.761 309.416 99.7914 309.113 99.7052C308.811 99.6189 308.557 99.4038 308.351 99.0597L306.298 95.6313ZM311.95 105.069C311.744 104.725 311.674 104.399 311.74 104.092C311.807 103.785 311.963 103.558 312.209 103.411C312.455 103.264 312.729 103.233 313.031 103.319C313.333 103.406 313.587 103.621 313.793 103.965L315.846 107.393C316.052 107.737 316.122 108.063 316.055 108.37C315.988 108.677 315.832 108.904 315.586 109.051C315.341 109.198 315.067 109.229 314.765 109.143C314.463 109.056 314.209 108.841 314.003 108.497L311.95 105.069ZM308.658 94.2185C308.452 93.8744 308.382 93.5489 308.449 93.2419C308.515 92.9349 308.671 92.7079 308.917 92.5607C309.163 92.4135 309.437 92.3831 309.739 92.4693C310.041 92.5555 310.295 92.7707 310.501 93.1148L312.554 96.5432C312.76 96.8872 312.83 97.2128 312.763 97.5198C312.697 97.8267 312.54 98.0538 312.295 98.201C312.049 98.3482 311.775 98.3786 311.473 98.2924C311.171 98.2061 310.917 97.991 310.711 97.6469L308.658 94.2185ZM314.309 103.656C314.103 103.312 314.033 102.986 314.1 102.679C314.166 102.372 314.323 102.145 314.568 101.998C314.814 101.851 315.088 101.82 315.39 101.907C315.692 101.993 315.946 102.208 316.152 102.552L318.205 105.981C318.411 106.325 318.481 106.65 318.414 106.957C318.348 107.264 318.192 107.491 317.946 107.638C317.7 107.786 317.426 107.816 317.124 107.73C316.822 107.644 316.568 107.428 316.362 107.084L314.309 103.656ZM311.017 92.8057C310.811 92.4616 310.741 92.1361 310.808 91.8291C310.874 91.5221 311.031 91.2951 311.276 91.1479C311.522 91.0007 311.796 90.9703 312.098 91.0565C312.4 91.1427 312.654 91.3579 312.86 91.7019L314.913 95.1304C315.119 95.4744 315.189 95.8 315.122 96.1069C315.056 96.4139 314.9 96.641 314.654 96.7882C314.408 96.9353 314.134 96.9658 313.832 96.8796C313.53 96.7933 313.276 96.5782 313.07 96.2341L311.017 92.8057ZM316.668 102.243C316.462 101.899 316.393 101.573 316.459 101.266C316.526 100.959 316.682 100.732 316.928 100.585C317.173 100.438 317.447 100.408 317.749 100.494C318.051 100.58 318.305 100.795 318.512 101.139L320.564 104.568C320.771 104.912 320.84 105.237 320.774 105.544C320.707 105.851 320.551 106.078 320.305 106.226C320.059 106.373 319.785 106.403 319.483 106.317C319.181 106.231 318.927 106.016 318.721 105.671L316.668 102.243Z" fill="black"/>
<path d="M309.486 124.445C309.348 124.069 309.34 123.736 309.463 123.447C309.585 123.158 309.781 122.964 310.05 122.865C310.319 122.766 310.593 122.787 310.874 122.928C311.155 123.069 311.364 123.328 311.503 123.705L316.674 137.781C316.812 138.157 316.82 138.49 316.697 138.779C316.574 139.069 316.379 139.263 316.11 139.361C315.841 139.46 315.566 139.439 315.285 139.298C315.005 139.157 314.795 138.898 314.657 138.522L309.486 124.445ZM312.067 123.497C311.929 123.121 311.921 122.788 312.044 122.499C312.166 122.21 312.362 122.016 312.631 121.917C312.9 121.818 313.175 121.839 313.456 121.98C313.736 122.121 313.946 122.38 314.084 122.756L315.462 126.507C315.6 126.884 315.608 127.217 315.485 127.506C315.363 127.795 315.167 127.989 314.898 128.088C314.629 128.187 314.354 128.165 314.074 128.024C313.793 127.883 313.584 127.625 313.445 127.248L312.067 123.497ZM314.649 122.549C314.51 122.172 314.503 121.84 314.625 121.55C314.748 121.261 314.944 121.067 315.212 120.969C315.481 120.87 315.756 120.891 316.037 121.032C316.318 121.173 316.527 121.432 316.665 121.808L318.043 125.559C318.182 125.936 318.189 126.268 318.067 126.558C317.944 126.847 317.748 127.041 317.479 127.14C317.211 127.238 316.936 127.217 316.655 127.076C316.374 126.935 316.165 126.676 316.027 126.3L314.649 122.549ZM317.23 121.601C317.092 121.224 317.084 120.891 317.207 120.602C317.329 120.313 317.525 120.119 317.794 120.02C318.063 119.921 318.338 119.943 318.618 120.084C318.899 120.225 319.108 120.483 319.247 120.86L322.521 129.774C322.659 130.15 322.667 130.483 322.545 130.772C322.422 131.061 322.226 131.255 321.957 131.354C321.688 131.453 321.414 131.432 321.133 131.291C320.852 131.15 320.643 130.891 320.504 130.514L317.23 121.601ZM319.811 120.652C319.673 120.276 319.665 119.943 319.788 119.654C319.911 119.365 320.106 119.171 320.375 119.072C320.644 118.973 320.919 118.994 321.2 119.135C321.48 119.276 321.69 119.535 321.828 119.912L323.206 123.663C323.344 124.039 323.352 124.372 323.229 124.661C323.107 124.95 322.911 125.144 322.642 125.243C322.373 125.342 322.098 125.321 321.818 125.18C321.537 125.039 321.328 124.78 321.189 124.403L319.811 120.652ZM322.393 119.704C322.254 119.328 322.247 118.995 322.369 118.706C322.492 118.417 322.688 118.223 322.957 118.124C323.225 118.025 323.5 118.046 323.781 118.187C324.062 118.328 324.271 118.587 324.409 118.963L325.787 122.714C325.926 123.091 325.933 123.424 325.811 123.713C325.688 124.002 325.492 124.196 325.223 124.295C324.955 124.394 324.68 124.372 324.399 124.231C324.118 124.09 323.909 123.832 323.771 123.455L322.393 119.704ZM324.974 118.756C324.836 118.379 324.828 118.047 324.951 117.757C325.073 117.468 325.269 117.274 325.538 117.176C325.807 117.077 326.082 117.098 326.362 117.239C326.643 117.38 326.852 117.639 326.991 118.015L332.162 132.091C332.3 132.468 332.308 132.801 332.185 133.09C332.062 133.379 331.867 133.573 331.598 133.672C331.329 133.771 331.054 133.75 330.773 133.609C330.493 133.467 330.283 133.209 330.145 132.832L324.974 118.756Z" fill="black"/>
<path d="M317.572 149.556C317.506 149.16 317.561 148.832 317.735 148.57C317.91 148.309 318.138 148.155 318.421 148.108C318.703 148.061 318.969 148.133 319.219 148.324C319.468 148.515 319.626 148.808 319.692 149.204L320.346 153.146C320.412 153.542 320.357 153.87 320.183 154.131C320.009 154.393 319.78 154.547 319.498 154.594C319.215 154.64 318.949 154.569 318.699 154.378C318.45 154.187 318.292 153.894 318.227 153.498L317.572 149.556ZM319.374 160.407C319.308 160.012 319.363 159.683 319.537 159.422C319.711 159.161 319.94 159.006 320.222 158.96C320.505 158.913 320.771 158.985 321.021 159.176C321.27 159.366 321.428 159.66 321.493 160.055L322.148 163.997C322.214 164.393 322.159 164.721 321.985 164.983C321.81 165.244 321.582 165.398 321.299 165.445C321.017 165.492 320.751 165.42 320.501 165.229C320.252 165.038 320.094 164.745 320.029 164.349L319.374 160.407ZM320.285 149.105C320.219 148.71 320.274 148.381 320.448 148.12C320.622 147.859 320.851 147.705 321.134 147.658C321.416 147.611 321.682 147.683 321.932 147.874C322.181 148.064 322.339 148.358 322.404 148.753L323.059 152.695C323.125 153.091 323.07 153.42 322.896 153.681C322.721 153.942 322.493 154.096 322.21 154.143C321.928 154.19 321.662 154.118 321.412 153.927C321.163 153.736 321.005 153.443 320.94 153.047L320.285 149.105ZM321.636 157.244C321.571 156.848 321.625 156.52 321.799 156.259C321.974 155.997 322.202 155.843 322.485 155.796C322.767 155.749 323.034 155.821 323.283 156.012C323.532 156.203 323.69 156.496 323.756 156.892L324.41 160.834C324.476 161.23 324.422 161.558 324.247 161.819C324.073 162.081 323.844 162.235 323.562 162.282C323.279 162.329 323.013 162.257 322.764 162.066C322.514 161.875 322.357 161.582 322.291 161.186L321.636 157.244ZM322.998 148.655C322.932 148.259 322.986 147.931 323.161 147.67C323.335 147.408 323.564 147.254 323.846 147.207C324.129 147.16 324.395 147.232 324.644 147.423C324.894 147.614 325.052 147.907 325.117 148.303L326.673 157.671C326.738 158.066 326.684 158.395 326.51 158.656C326.335 158.917 326.107 159.071 325.824 159.118C325.542 159.165 325.276 159.093 325.026 158.902C324.777 158.712 324.619 158.418 324.553 158.023L322.998 148.655ZM325.711 148.204C325.645 147.809 325.699 147.48 325.874 147.219C326.048 146.958 326.277 146.804 326.559 146.757C326.842 146.71 327.108 146.782 327.357 146.973C327.607 147.164 327.764 147.457 327.83 147.852L329.836 159.933C329.902 160.329 329.847 160.657 329.673 160.918C329.499 161.18 329.27 161.334 328.987 161.381C328.705 161.428 328.439 161.356 328.189 161.165C327.94 160.974 327.782 160.681 327.717 160.285L325.711 148.204ZM328.424 147.754C328.358 147.358 328.412 147.03 328.587 146.769C328.761 146.507 328.989 146.353 329.272 146.306C329.555 146.259 329.821 146.331 330.07 146.522C330.32 146.713 330.477 147.006 330.543 147.402L331.198 151.344C331.263 151.74 331.209 152.068 331.034 152.329C330.86 152.591 330.632 152.745 330.349 152.792C330.066 152.839 329.8 152.767 329.551 152.576C329.301 152.385 329.144 152.092 329.078 151.696L328.424 147.754ZM330.225 158.605C330.16 158.21 330.214 157.881 330.388 157.62C330.563 157.359 330.791 157.205 331.074 157.158C331.357 157.111 331.623 157.183 331.872 157.374C332.122 157.565 332.279 157.858 332.345 158.253L332.999 162.196C333.065 162.591 333.011 162.92 332.836 163.181C332.662 163.442 332.433 163.596 332.151 163.643C331.868 163.69 331.602 163.618 331.353 163.427C331.103 163.236 330.946 162.943 330.88 162.547L330.225 158.605ZM331.136 147.303C331.071 146.908 331.125 146.579 331.299 146.318C331.474 146.057 331.702 145.903 331.985 145.856C332.268 145.809 332.534 145.881 332.783 146.072C333.033 146.263 333.19 146.556 333.256 146.952L333.91 150.894C333.976 151.289 333.922 151.618 333.747 151.879C333.573 152.14 333.344 152.294 333.062 152.341C332.779 152.388 332.513 152.316 332.264 152.125C332.014 151.934 331.857 151.641 331.791 151.246L331.136 147.303ZM332.938 158.155C332.873 157.759 332.927 157.431 333.101 157.17C333.276 156.908 333.504 156.754 333.787 156.707C334.069 156.66 334.335 156.732 334.585 156.923C334.834 157.114 334.992 157.407 335.058 157.803L335.712 161.745C335.778 162.141 335.724 162.469 335.549 162.73C335.375 162.992 335.146 163.146 334.864 163.193C334.581 163.24 334.315 163.168 334.066 162.977C333.816 162.786 333.658 162.493 333.593 162.097L332.938 158.155ZM333.849 146.853C333.784 146.457 333.838 146.129 334.012 145.868C334.187 145.606 334.415 145.452 334.698 145.405C334.98 145.358 335.246 145.43 335.496 145.621C335.745 145.812 335.903 146.105 335.969 146.501L337.975 158.582C338.04 158.977 337.986 159.306 337.812 159.567C337.637 159.828 337.409 159.982 337.126 160.029C336.843 160.076 336.577 160.004 336.328 159.813C336.078 159.623 335.921 159.329 335.855 158.934L333.849 146.853Z" fill="black"/>
<defs>
<linearGradient id="paint0_linear_1_40" x1="180" y1="0" x2="180" y2="360" gradientUnits="userSpaceOnUse">
<stop stop-color="#ECB9B9"/>
<stop offset="0.225" stop-color="#EEE1E1"/>
<stop offset="0.31" stop-color="white"/>
<stop offset="0.725" stop-color="white"/>
<stop offset="1" stop-color="#4AC0D0"/>
</linearGradient>
<linearGradient id="paint1_linear_1_40" x1="180" y1="0" x2="180" y2="360" gradientUnits="userSpaceOnUse">
<stop stop-opacity="0"/>
<stop offset="0.295" stop-opacity="0"/>
<stop offset="0.49" stop-color="#FF8585"/>
<stop offset="0.67" stop-opacity="0"/>
</linearGradient>
<linearGradient id="paint2_linear_1_40" x1="180" y1="0" x2="180" y2="360" gradientUnits="userSpaceOnUse">
<stop stop-color="white"/>
<stop offset="1" stop-color="white" stop-opacity="0"/>
</linearGradient>
</defs>
</svg>
